HIERARCHY
ROOT Hips
{
	OFFSET	0.00	0.00	0.00
	CHANNELS 6 Xposition Yposition Zposition Zrotation Xrotation Yrotation
	JOINT LeftUpLeg
	{
		OFFSET	 0.126116	-0.014019	-0.065224
		CHANNELS 3 Zrotation Xrotation Yrotation
		JOINT LeftLeg
		{
			OFFSET	 0.000000	 0.000000	 0.569914
			CHANNELS 3 Zrotation Xrotation Yrotation
			JOINT LeftFoot
			{
				OFFSET	 0.000000	 0.000000	 0.544423
				CHANNELS 3 Zrotation Xrotation Yrotation
				JOINT LeftToeBase
				{
					OFFSET	 0.000000	 0.000000	 0.207117
					CHANNELS 3 Zrotation Xrotation Yrotation
					End Site
					{
						OFFSET	 0.000000	 0.000000	 0.207117
					}
				}
			}
		}
	}
	JOINT RightUpLeg
	{
		OFFSET	-0.124023	-0.008373	-0.065224
		CHANNELS 3 Zrotation Xrotation Yrotation
		JOINT RightLeg
		{
			OFFSET	 0.000000	 0.000000	 0.570047
			CHANNELS 3 Zrotation Xrotation Yrotation
			JOINT RightFoot
			{
				OFFSET	 0.000000	 0.000000	 0.544354
				CHANNELS 3 Zrotation Xrotation Yrotation
				JOINT RightToeBase
				{
					OFFSET	 0.000000	 0.000000	 0.207540
					CHANNELS 3 Zrotation Xrotation Yrotation
					End Site
					{
						OFFSET	 0.000000	 0.000000	 0.207540
					}
				}
			}
		}
	}
	JOINT Spine
	{
		OFFSET	 0.000184	-0.007763	 0.117403
		CHANNELS 3 Zrotation Xrotation Yrotation
		JOINT Spine1
		{
			OFFSET	 0.000000	 0.000000	 0.137269
			CHANNELS 3 Zrotation Xrotation Yrotation
			JOINT Spine2
			{
				OFFSET	 0.000000	 0.000000	 0.156879
				CHANNELS 3 Zrotation Xrotation Yrotation
				JOINT LeftShoulder
				{
					OFFSET	 0.080501	-0.002496	 0.160144
					CHANNELS 3 Zrotation Xrotation Yrotation
					JOINT LeftArm
					{
						OFFSET	 0.000000	 0.000000	 0.164363
						CHANNELS 3 Zrotation Xrotation Yrotation
						JOINT LeftForeArm
						{
							OFFSET	 0.000000	 0.000000	 0.364576
							CHANNELS 3 Zrotation Xrotation Yrotation
							JOINT LeftHand
							{
								OFFSET	 0.000000	 0.000000	 0.360812
								CHANNELS 3 Zrotation Xrotation Yrotation
								JOINT LeftHandIndex1
								{
									OFFSET	 0.000000	 0.000000	 0.086006
									CHANNELS 3 Zrotation Xrotation Yrotation
									JOINT LeftHandIndex2
									{
										OFFSET	 0.000000	 0.000000	 0.047236
										CHANNELS 3 Zrotation Xrotation Yrotation
										JOINT LeftHandIndex3
										{
											OFFSET	-0.004284	-0.000551	 0.038166
											CHANNELS 3 Zrotation Xrotation Yrotation
											End Site
											{
												OFFSET	-0.004284	-0.000551	 0.038166
											}
										}
									}
								}
							}
						}
					}
				}
				JOINT Neck
				{
					OFFSET	 0.000000	 0.000000	 0.176489
					CHANNELS 3 Zrotation Xrotation Yrotation
					JOINT Head
					{
						OFFSET	 0.000000	-0.001747	 0.077940
						CHANNELS 3 Zrotation Xrotation Yrotation
						End Site
						{
							OFFSET	 0.000000	-0.001747	 0.077940
						}
					}
				}
				JOINT RightShoulder
				{
					OFFSET	-0.080363	 0.000306	 0.159706
					CHANNELS 3 Zrotation Xrotation Yrotation
					JOINT RightArm
					{
						OFFSET	 0.000000	 0.000000	 0.164196
						CHANNELS 3 Zrotation Xrotation Yrotation
						JOINT RightForeArm
						{
							OFFSET	 0.000000	 0.000000	 0.365611
							CHANNELS 3 Zrotation Xrotation Yrotation
							JOINT RightHand
							{
								OFFSET	 0.000000	 0.000000	 0.360648
								CHANNELS 3 Zrotation Xrotation Yrotation
								JOINT RightHandIndex1
								{
									OFFSET	 0.000000	 0.000000	 0.069977
									CHANNELS 3 Zrotation Xrotation Yrotation
									JOINT RightHandIndex2
									{
										OFFSET	 0.000000	 0.000000	 0.052305
										CHANNELS 3 Zrotation Xrotation Yrotation
										JOINT RightHandIndex3
										{
											OFFSET	 0.009002	-0.000782	 0.042196
											CHANNELS 3 Zrotation Xrotation Yrotation
											End Site
											{
												OFFSET	 0.009002	-0.000782	 0.042196
											}
										}
									}
								}
							}
						}
					}
				}
			}
		}
	}
}
MOTION
Frames:    7
Frame Time: 0.03333334
-0.054793	-2.219898	 1.157178	 3.857049	-1.674441	-2.761931	 1.013912	-18.824370	-171.253700	 0.137989	-51.292320	-0.167691	 91.038330	 82.633670	-95.056720	-2.371641	 31.234630	-0.061335	-1.414170	-33.323070	-175.305100	 13.219170	-62.482200	 12.462230	 16.258430	 73.715190	-11.945690	 2.357729	 33.182350	 0.107463	-5.651580	 8.920588	 2.257462	-2.070474	 2.057117	-1.580208	 3.415598	-1.645245	 1.639103	-93.740180	 58.833690	 175.826100	 21.255500	 42.012960	-25.738840	-0.341281	-1.954881	-15.520020	 0.720684	-3.809704	-5.636482	-4.869316	 19.251880	-2.788814	-3.891312	 21.347450	 2.212692	-4.807371	 5.555954	 0.146356	-0.133979	-5.005548	 0.154414	 1.105808	 2.173360	 2.945005	 89.842360	 61.557520	-179.856700	-20.488720	 51.549950	 15.259600	-1.441083	-1.083016	 5.628576	-5.005656	 10.039580	 0.814065	 6.306110	 26.130140	-0.578750	 1.710240	 46.078790	-6.836284	 0.322376	 25.163430	 3.672898
-0.055294	-2.228956	 1.157308	 4.420063	-1.392994	-2.738988	 0.504012	-18.643170	-171.317300	 0.703682	-51.166690	 0.233869	 91.580150	 82.638490	-95.925560	-2.370620	 31.409170	-0.065271	-2.668835	-34.309100	-175.281200	 13.691970	-61.476590	 12.757130	 23.192380	 77.518270	-19.497490	 2.358278	 33.101790	 0.105590	-6.074618	 8.762493	 2.159650	-2.068489	 1.899595	-1.547724	 3.333533	-1.766858	 1.640848	-93.844200	 58.925760	 175.593800	 21.629470	 41.371070	-26.251490	-0.984716	-1.804194	-15.773650	 1.033303	-3.993286	-6.542026	-4.869283	 19.243870	-2.786484	-3.887751	 21.393120	 2.209079	-4.808248	 5.545567	 0.146966	-0.103578	-5.042089	 0.170035	 1.122468	 2.062294	 2.840528	 89.808530	 61.611910	-179.937100	-20.132410	 51.817390	 14.806720	-1.681779	-0.952578	 4.873785	-4.941011	 10.375480	 0.688753	 6.299526	 25.476590	-0.560427	 1.801722	 45.369000	-6.918293	 0.434092	 24.679080	 3.615254
-0.055802	-2.238525	 1.157309	 4.954944	-1.118273	-2.725914	-0.093540	-18.439920	-171.413600	 1.089112	-51.039810	 0.572617	 92.382160	 82.655240	-97.000170	-2.369685	 31.567370	-0.068846	-3.831019	-35.306140	-175.287400	 13.961440	-60.394660	 12.866200	 34.998130	 80.476740	-31.962390	 2.358814	 33.022800	 0.103754	-6.474118	 8.630990	 2.067361	-2.067429	 1.692183	-1.519051	 3.241708	-1.786327	 1.646160	-93.942100	 59.004040	 175.375200	 21.905330	 40.671770	-26.706940	-1.497138	-1.706232	-16.211570	 1.314634	-4.117660	-7.403744	-4.869039	 19.248760	-2.786525	-3.883825	 21.443390	 2.205085	-4.808265	 5.545358	 0.146975	-0.074273	-5.077068	 0.184972	 1.128335	 2.011659	 2.738866	 89.777780	 61.651020	 179.989600	-19.792310	 52.061830	 14.335300	-1.852894	-0.846588	 4.266066	-4.953519	 10.700830	 0.574153	 6.293362	 24.805580	-0.538902	 1.894775	 44.625590	-7.001385	 0.545325	 24.192540	 3.558621
-0.056353	-2.250653	 1.157146	 5.495692	-0.651074	-2.747307	-0.639564	-18.278260	-171.480000	 1.371118	-50.878190	 0.790112	 93.385840	 82.704270	-98.160710	-2.368764	 31.719510	-0.072297	-5.243107	-36.713600	-175.331000	 14.487040	-58.891850	 13.134630	 55.624000	 82.688390	-53.431150	 2.358982	 32.998490	 0.103183	-6.807290	 8.338185	 1.925606	-2.075745	 1.464397	-1.409329	 3.119049	-1.813767	 1.612093	-94.070470	 59.018220	 175.099500	 21.967940	 39.798380	-26.991610	-1.757435	-1.714628	-17.007610	 1.761595	-4.366453	-7.924502	-4.865413	 19.346960	-2.794103	-3.876762	 21.533700	 2.197911	-4.805505	 5.577938	 0.145074	-0.046653	-5.099362	 0.220305	 1.096657	 1.971059	 2.665884	 89.729870	 61.709190	 179.875100	-19.407370	 52.350870	 13.760650	-2.232238	-0.734581	 3.579232	-5.109808	 11.055500	 0.394534	 6.280965	 23.882330	-0.546984	 2.004166	 43.723140	-7.098600	 0.733010	 23.361910	 3.464837
-0.056882	-2.262307	 1.156792	 5.956364	-0.225640	-2.776225	-1.116354	-18.098690	-171.543000	 1.587204	-50.736750	 0.955858	 94.706890	 82.766980	-99.590610	-2.367985	 31.847760	-0.075212	-6.478035	-37.991710	-175.425800	 14.768130	-57.389680	 13.171240	 84.615720	 83.062770	-83.268550	 2.359053	 32.986480	 0.102913	-7.075223	 8.065368	 1.795386	-2.082313	 1.286415	-1.294592	 3.000545	-1.848342	 1.570636	-94.184160	 59.020380	 174.856400	 21.937510	 38.968430	-27.210730	-1.923196	-1.747456	-17.813750	 2.142414	-4.590353	-8.314595	-4.861788	 19.445090	-2.801726	-3.870257	 21.616710	 2.191306	-4.802725	 5.610771	 0.143148	-0.023454	-5.116264	 0.253494	 1.054201	 1.939140	 2.607740	 89.686580	 61.761670	 179.771300	-19.072470	 52.617590	 13.124400	-2.584706	-0.673971	 3.185138	-5.263851	 11.361500	 0.231140	 6.269308	 23.058530	-0.558621	 2.097031	 42.931590	-7.180722	 0.902353	 22.602000	 3.382149
-0.057162	-2.277002	 1.156120	 6.222342	 0.228174	-2.984047	-1.330854	-17.681140	-171.427800	 1.746479	-50.447960	 1.074736	 98.546040	 82.760580	-103.534700	-2.366564	 32.077740	-0.080448	-6.940758	-39.446070	-175.223900	 14.973610	-55.478260	 13.065920	 96.353200	 81.952920	-96.021190	 2.360400	 32.786830	 0.098280	-7.182508	 7.684766	 1.829354	-2.064509	 1.311328	-1.149845	 2.882134	-1.928080	 1.498629	-94.294480	 58.977880	 174.627600	 21.705550	 37.945450	-27.490680	-2.408327	-1.689206	-18.845380	 2.137844	-5.002668	-8.031935	-4.852757	 19.656880	-2.811818	-3.859003	 21.759920	 2.179860	-4.795754	 5.692815	 0.138340	-0.012276	-5.155405	 0.289621	 0.969599	 1.912096	 2.600186	 89.610980	 61.854520	 179.589000	-18.611270	 52.937650	 12.317520	-3.276487	-0.660427	 2.945391	-5.541677	 11.769410	-0.306009	 6.250882	 21.968200	-0.595096	 2.193373	 42.085090	-7.265499	 1.142343	 21.508300	 3.268192
-0.057458	-2.290696	 1.155268	 6.438148	 0.614704	-3.174745	-1.509203	-17.258450	-171.328700	 1.878144	-50.191880	 1.171936	 102.373700	 82.723270	-107.450500	-2.365294	 32.279570	-0.085063	-7.217661	-40.670870	-175.035500	 14.990700	-53.620840	 12.791790	 101.486200	 80.767260	-101.986900	 2.361603	 32.605550	 0.094095	-7.258262	 7.353712	 1.867309	-2.046549	 1.362874	-1.018899	 2.771265	-2.008409	 1.430119	-94.388200	 58.939170	 174.434000	 21.437400	 37.006690	-27.777620	-2.825513	-1.622197	-19.707240	 2.098371	-5.359694	-7.747933	-4.844695	 19.843950	-2.820589	-3.849108	 21.885400	 2.169813	-4.789564	 5.765611	 0.134061	-0.003485	-5.190049	 0.320548	 0.884859	 1.890290	 2.595878	 89.545040	 61.936010	 179.428900	-18.206910	 53.227100	 11.459720	-3.885172	-0.707986	 3.007172	-5.779076	 12.122900	-0.787537	 6.234306	 21.024650	-0.627674	 2.273344	 41.361720	-7.335542	 1.347619	 20.557370	 3.173797
